<?xml version="1.0" encoding="UTF-8" standalone="no"?>
<svg
   width="24"
   height="24"
   viewBox="0 0 24 24"
   fill="none"
   stroke="currentColor"
   stroke-width="1"
   stroke-linecap="round"
   stroke-linejoin="round"
   class="lucide lucide-anvil-icon lucide-anvil"
   version="1.1"
   id="svg5"
   sodipodi:docname="anvil.svg"
   inkscape:version="1.4 (unknown)"
   xmlns:inkscape="http://www.inkscape.org/namespaces/inkscape"
   xmlns:sodipodi="http://sodipodi.sourceforge.net/DTD/sodipodi-0.dtd"
   xmlns="http://www.w3.org/2000/svg"
   xmlns:svg="http://www.w3.org/2000/svg">
  <defs
     id="defs5" />
  <sodipodi:namedview
     id="namedview5"
     pagecolor="#ffffff"
     bordercolor="#000000"
     borderopacity="0.25"
     inkscape:showpageshadow="2"
     inkscape:pageopacity="0.0"
     inkscape:pagecheckerboard="0"
     inkscape:deskcolor="#d1d1d1"
     inkscape:zoom="25.220142"
     inkscape:cx="16.514578"
     inkscape:cy="10.190268"
     inkscape:window-width="1920"
     inkscape:window-height="1043"
     inkscape:window-x="0"
     inkscape:window-y="0"
     inkscape:window-maximized="1"
     inkscape:current-layer="svg5" />
  <rect
     style="fill:#ffe680;stroke-width:0;stroke-dasharray:none"
     id="rect5"
     width="5.9476271"
     height="5.3925152"
     x="9.1593456"
     y="12.212461" />
  <path
     d="M7 10H6a4 4 0 0 1-4-4 1 1 0 0 1 1-1h4"
     id="path1"
     style="fill:#ffe680" />
  <path
     d="M7 5a1 1 0 0 1 1-1h13a1 1 0 0 1 1 1 7 7 0 0 1-7 7H8a1 1 0 0 1-1-1z"
     id="path2"
     style="fill:#ffe680" />
  <path
     d="M9 12v5"
     id="path3"
     style="fill:#ffe680" />
  <path
     d="M15 12v5"
     id="path4"
     style="fill:#ffe680" />
  <path
     d="M5 20a3 3 0 0 1 3-3h8a3 3 0 0 1 3 3 1 1 0 0 1-1 1H6a1 1 0 0 1-1-1"
     id="path5"
     style="fill:#ffe680" />
</svg>
